<svg xmlns="http://www.w3.org/2000/svg" width="24" height="24" viewBox="0 0 24 24" fill="none">
  <path d="M6 2C5.44772 2 5 2.44772 5 3V21C5 21.2761 5.27614 21.5 5.55228 21.5C5.73729 21.5 5.914 21.4142 6.05 21.27L7.5 19.77L9 21.27C9.136 21.4142 9.31271 21.5 9.49772 21.5C9.68273 21.5 9.85944 21.4142 9.99544 21.27L11.5 19.77L13 21.27C13.136 21.4142 13.3127 21.5 13.4977 21.5C13.6827 21.5 13.8594 21.4142 13.9954 21.27L15.5 19.77L17 21.27C17.136 21.4142 17.3127 21.5 17.4977 21.5C17.6827 21.5 17.8594 21.4142 17.9954 21.27L19.5 19.77L21.05 21.27C21.4142 21.5858 22 21.3065 22 20.8284V3C22 2.44772 21.5523 2 21 2H6ZM6.5 4H20.5V19.4142L19.05 18L17.5 19.5L16 18L14.5 19.5L13 18L11.5 19.5L10 18L8.5 19.5L7.05 18L6.5 18.5858V4Z" fill="#667085"/>
  <path d="M8 8.5H16C16.5523 8.5 17 8.05228 17 7.5C17 6.94772 16.5523 6.5 16 6.5H8C7.44772 6.5 7 6.94772 7 7.5C7 8.05228 7.44772 8.5 8 8.5ZM8 11.5H12C12.5523 11.5 13 11.0523 13 10.5C13 9.94772 12.5523 9.5 12 9.5H8C7.44772 9.5 7 9.94772 7 10.5C7 11.0523 7.44772 11.5 8 11.5ZM8 14.5H12C12.5523 14.5 13 14.0523 13 13.5C13 12.9477 12.5523 12.5 12 12.5H8C7.44772 12.5 7 12.9477 7 13.5C7 14.0523 7.44772 14.5 8 14.5Z" fill="#667085"/>
</svg>
